<svg width="55" height="56" viewBox="0 0 55 56" fill="none" xmlns="http://www.w3.org/2000/svg">
<path d="M13 55V56H14V55H13ZM9 54C8.44772 54 8 54.4477 8 55C8 55.5523 8.44772 56 9 56V54ZM12 36V55H14V36H12ZM13 54H9V56H13V54Z" fill="#FFE2D1"/>
<path d="M42 55V56H43V55H42ZM38 54C37.4477 54 37 54.4477 37 55C37 55.5523 37.4477 56 38 56V54ZM41 36V55H43V36H41ZM42 54H38V56H42V54Z" fill="#FFE2D1"/>
<g filter="url(#filter0_d_13_388)">
<path d="M50 26.5C50 38.9264 39.9264 49 27.5 49C15.0736 49 5 38.9264 5 26.5C5 14.0736 15.0736 4 27.5 4C39.9264 4 50 14.0736 50 26.5Z" fill="#FFE2D1"/>
</g>
<circle cx="23" cy="15" r="4" fill="white"/>
<circle cx="30" cy="15" r="4" fill="white"/>
<circle cx="1.5" cy="1.5" r="1.5" transform="matrix(1 0 0 -1 21 17)" fill="black"/>
<circle cx="1.5" cy="1.5" r="1.5" transform="matrix(1 0 0 -1 28 17)" fill="black"/>
<defs>
<filter id="filter0_d_13_388" x="0" y="0" width="55" height="55" filterUnits="userSpaceOnUse" color-interpolation-filters="sRGB">
<feFlood flood-opacity="0" result="BackgroundImageFix"/>
<feColorMatrix in="SourceAlpha" type="matrix" values="0 0 0 0 0 0 0 0 0 0 0 0 0 0 0 0 0 0 127 0" result="hardAlpha"/>
<feOffset dy="1"/>
<feGaussianBlur stdDeviation="2.5"/>
<feComposite in2="hardAlpha" operator="out"/>
<feColorMatrix type="matrix" values="0 0 0 0 0 0 0 0 0 0 0 0 0 0 0 0 0 0 0.5 0"/>
<feBlend mode="color-burn" in2="BackgroundImageFix" result="effect1_dropShadow_13_388"/>
<feBlend mode="normal" in="SourceGraphic" in2="effect1_dropShadow_13_388" result="shape"/>
</filter>
</defs>
</svg>
