<svg width="52" height="53" viewBox="0 0 52 53" fill="none" xmlns="http://www.w3.org/2000/svg">
<path d="M18 52V53H19V52H18ZM14 51C13.4477 51 13 51.4477 13 52C13 52.5523 13.4477 53 14 53V51ZM17 33V52H19V33H17ZM18 51H14V53H18V51Z" fill="#5281CE"/>
<path d="M34 52V53H33V52H34ZM38 51C38.5523 51 39 51.4477 39 52C39 52.5523 38.5523 53 38 53V51ZM35 33V52H33V33H35ZM34 51H38V53H34V51Z" fill="#5281CE"/>
<g filter="url(#filter0_d_13_390)">
<rect x="5" y="25" width="29.6985" height="29.6985" rx="2" transform="rotate(-45 5 25)" fill="#5281CE"/>
</g>
<circle cx="22" cy="30" r="4" fill="white"/>
<circle cx="29" cy="30" r="4" fill="white"/>
<circle cx="1.5" cy="1.5" r="1.5" transform="matrix(1 0 0 -1 20 32)" fill="black"/>
<circle cx="1.5" cy="1.5" r="1.5" transform="matrix(1 0 0 -1 27 32)" fill="black"/>
<defs>
<filter id="filter0_d_13_390" x="0.828427" y="0.82843" width="50.3432" height="50.3432" filterUnits="userSpaceOnUse" color-interpolation-filters="sRGB">
<feFlood flood-opacity="0" result="BackgroundImageFix"/>
<feColorMatrix in="SourceAlpha" type="matrix" values="0 0 0 0 0 0 0 0 0 0 0 0 0 0 0 0 0 0 127 0" result="hardAlpha"/>
<feOffset dy="1"/>
<feGaussianBlur stdDeviation="2.5"/>
<feComposite in2="hardAlpha" operator="out"/>
<feColorMatrix type="matrix" values="0 0 0 0 0 0 0 0 0 0 0 0 0 0 0 0 0 0 0.5 0"/>
<feBlend mode="color-burn" in2="BackgroundImageFix" result="effect1_dropShadow_13_390"/>
<feBlend mode="normal" in="SourceGraphic" in2="effect1_dropShadow_13_390" result="shape"/>
</filter>
</defs>
</svg>
