<svg width="38" height="39" viewBox="0 0 38 39" fill="none" xmlns="http://www.w3.org/2000/svg">
<path d="M13 38V39H14V38H13ZM9 37C8.44772 37 8 37.4477 8 38C8 38.5523 8.44772 39 9 39V37ZM12 19V38H14V19H12ZM13 37H9V39H13V37Z" fill="#998CEB"/>
<path d="M25 38V39H26V38H25ZM21 37C20.4477 37 20 37.4477 20 38C20 38.5523 20.4477 39 21 39V37ZM24 19V38H26V19H24ZM25 37H21V39H25V37Z" fill="#998CEB"/>
<g filter="url(#filter0_d_13_387)">
<circle cx="18.875" cy="17.875" r="13.875" fill="#998CEB"/>
</g>
<circle cx="14" cy="18" r="4" fill="white"/>
<circle cx="21" cy="18" r="4" fill="white"/>
<circle cx="1.5" cy="1.5" r="1.5" transform="matrix(1 0 0 -1 12 20)" fill="black"/>
<circle cx="1.5" cy="1.5" r="1.5" transform="matrix(1 0 0 -1 19 20)" fill="black"/>
<defs>
<filter id="filter0_d_13_387" x="0" y="0" width="37.75" height="37.75" filterUnits="userSpaceOnUse" color-interpolation-filters="sRGB">
<feFlood flood-opacity="0" result="BackgroundImageFix"/>
<feColorMatrix in="SourceAlpha" type="matrix" values="0 0 0 0 0 0 0 0 0 0 0 0 0 0 0 0 0 0 127 0" result="hardAlpha"/>
<feOffset dy="1"/>
<feGaussianBlur stdDeviation="2.5"/>
<feComposite in2="hardAlpha" operator="out"/>
<feColorMatrix type="matrix" values="0 0 0 0 0 0 0 0 0 0 0 0 0 0 0 0 0 0 0.5 0"/>
<feBlend mode="color-burn" in2="BackgroundImageFix" result="effect1_dropShadow_13_387"/>
<feBlend mode="normal" in="SourceGraphic" in2="effect1_dropShadow_13_387" result="shape"/>
</filter>
</defs>
</svg>
