<svg width="38" height="46" viewBox="0 0 38 46" fill="none" xmlns="http://www.w3.org/2000/svg">
<g filter="url(#filter0_d_13_385)">
<path d="M13 37V38H14V37H13ZM9 36C8.44772 36 8 36.4477 8 37C8 37.5523 8.44772 38 9 38V36ZM12 18V37H14V18H12ZM13 36H9V38H13V36Z" fill="#FF9A9F"/>
<path d="M25 37V38H26V37H25ZM21 36C20.4477 36 20 36.4477 20 37C20 37.5523 20.4477 38 21 38V36ZM24 18V37H26V18H24ZM25 36H21V38H25V36Z" fill="#FF9A9F"/>
<g filter="url(#filter1_d_13_385)">
<rect x="5" y="4" width="27.75" height="27.75" rx="2" fill="#FF9A9F"/>
</g>
<circle cx="15" cy="17" r="4" fill="white"/>
<circle cx="22" cy="17" r="4" fill="white"/>
<circle cx="1.5" cy="1.5" r="1.5" transform="matrix(1 0 0 -1 13 19)" fill="black"/>
<circle cx="1.5" cy="1.5" r="1.5" transform="matrix(1 0 0 -1 20 19)" fill="black"/>
</g>
<defs>
<filter id="filter0_d_13_385" x="1" y="4" width="35.75" height="42" filterUnits="userSpaceOnUse" color-interpolation-filters="sRGB">
<feFlood flood-opacity="0" result="BackgroundImageFix"/>
<feColorMatrix in="SourceAlpha" type="matrix" values="0 0 0 0 0 0 0 0 0 0 0 0 0 0 0 0 0 0 127 0" result="hardAlpha"/>
<feOffset dy="4"/>
<feGaussianBlur stdDeviation="2"/>
<feComposite in2="hardAlpha" operator="out"/>
<feColorMatrix type="matrix" values="0 0 0 0 0 0 0 0 0 0 0 0 0 0 0 0 0 0 0.25 0"/>
<feBlend mode="normal" in2="BackgroundImageFix" result="effect1_dropShadow_13_385"/>
<feBlend mode="normal" in="SourceGraphic" in2="effect1_dropShadow_13_385" result="shape"/>
</filter>
<filter id="filter1_d_13_385" x="0" y="0" width="37.75" height="37.75" filterUnits="userSpaceOnUse" color-interpolation-filters="sRGB">
<feFlood flood-opacity="0" result="BackgroundImageFix"/>
<feColorMatrix in="SourceAlpha" type="matrix" values="0 0 0 0 0 0 0 0 0 0 0 0 0 0 0 0 0 0 127 0" result="hardAlpha"/>
<feOffset dy="1"/>
<feGaussianBlur stdDeviation="2.5"/>
<feComposite in2="hardAlpha" operator="out"/>
<feColorMatrix type="matrix" values="0 0 0 0 0 0 0 0 0 0 0 0 0 0 0 0 0 0 0.5 0"/>
<feBlend mode="color-burn" in2="BackgroundImageFix" result="effect1_dropShadow_13_385"/>
<feBlend mode="normal" in="SourceGraphic" in2="effect1_dropShadow_13_385" result="shape"/>
</filter>
</defs>
</svg>
