<svg width="40" height="38" viewBox="0 0 40 38" fill="none" xmlns="http://www.w3.org/2000/svg">
<path d="M14 37V38H15V37H14ZM10 36C9.44772 36 9 36.4477 9 37C9 37.5523 9.44772 38 10 38V36ZM13 18V37H15V18H13ZM14 36H10V38H14V36Z" fill="#9EF5FF"/>
<path d="M26 37V38H27V37H26ZM22 36C21.4477 36 21 36.4477 21 37C21 37.5523 21.4477 38 22 38V36ZM25 18V37H27V18H25ZM26 36H22V38H26V36Z" fill="#9EF5FF"/>
<g filter="url(#filter0_d_13_386)">
<path d="M17.1833 5.45946C18.2685 3.51351 20.9815 3.51352 22.0667 5.45946L33.8681 26.6216C34.9533 28.5676 33.5968 31 31.4264 31H7.8236C5.65323 31 4.29675 28.5676 5.38193 26.6216L17.1833 5.45946Z" fill="#9EF5FF"/>
</g>
<circle cx="16" cy="11" r="4" fill="white"/>
<circle cx="23" cy="11" r="4" fill="white"/>
<circle cx="1.5" cy="1.5" r="1.5" transform="matrix(1 0 0 -1 14 13)" fill="black"/>
<circle cx="1.5" cy="1.5" r="1.5" transform="matrix(1 0 0 -1 21 13)" fill="black"/>
<defs>
<filter id="filter0_d_13_386" x="0" y="0" width="39.25" height="37" filterUnits="userSpaceOnUse" color-interpolation-filters="sRGB">
<feFlood flood-opacity="0" result="BackgroundImageFix"/>
<feColorMatrix in="SourceAlpha" type="matrix" values="0 0 0 0 0 0 0 0 0 0 0 0 0 0 0 0 0 0 127 0" result="hardAlpha"/>
<feOffset dy="1"/>
<feGaussianBlur stdDeviation="2.5"/>
<feComposite in2="hardAlpha" operator="out"/>
<feColorMatrix type="matrix" values="0 0 0 0 0 0 0 0 0 0 0 0 0 0 0 0 0 0 0.5 0"/>
<feBlend mode="color-burn" in2="BackgroundImageFix" result="effect1_dropShadow_13_386"/>
<feBlend mode="normal" in="SourceGraphic" in2="effect1_dropShadow_13_386" result="shape"/>
</filter>
</defs>
</svg>
