<svg width="16" height="63" viewBox="0 0 16 63" fill="none" xmlns="http://www.w3.org/2000/svg">
<path d="M6 62V63H7V62H6ZM2 61C1.44772 61 1 61.4477 1 62C1 62.5523 1.44772 63 2 63V61ZM5 43V62H7V43H5ZM6 61H2V63H6V61Z" fill="#FFD6E0"/>
<path d="M10 62V63H9V62H10ZM14 61C14.5523 61 15 61.4477 15 62C15 62.5523 14.5523 63 14 63V61ZM11 43V62H9V43H11ZM10 61H14V63H10V61Z" fill="#FFD6E0"/>
<g filter="url(#filter0_d_13_392)">
<path d="M8 7L8 50" stroke="#FFD6E0" stroke-width="6" stroke-linecap="round"/>
</g>
<circle cx="4" cy="15" r="4" fill="white"/>
<circle cx="11" cy="15" r="4" fill="white"/>
<circle cx="1.5" cy="1.5" r="1.5" transform="matrix(1 0 0 -1 2 17)" fill="black"/>
<circle cx="1.5" cy="1.5" r="1.5" transform="matrix(1 0 0 -1 9 17)" fill="black"/>
<defs>
<filter id="filter0_d_13_392" x="0" y="0" width="16" height="59" filterUnits="userSpaceOnUse" color-interpolation-filters="sRGB">
<feFlood flood-opacity="0" result="BackgroundImageFix"/>
<feColorMatrix in="SourceAlpha" type="matrix" values="0 0 0 0 0 0 0 0 0 0 0 0 0 0 0 0 0 0 127 0" result="hardAlpha"/>
<feOffset dy="1"/>
<feGaussianBlur stdDeviation="2.5"/>
<feComposite in2="hardAlpha" operator="out"/>
<feColorMatrix type="matrix" values="0 0 0 0 0 0 0 0 0 0 0 0 0 0 0 0 0 0 0.5 0"/>
<feBlend mode="color-burn" in2="BackgroundImageFix" result="effect1_dropShadow_13_392"/>
<feBlend mode="normal" in="SourceGraphic" in2="effect1_dropShadow_13_392" result="shape"/>
</filter>
</defs>
</svg>
