<svg width="320" height="568" viewBox="0 0 320 568" fill="none" xmlns="http://www.w3.org/2000/svg">
<rect width="320" height="568" fill="#C8F6FF"/>
<path d="M12 568L39 568V-2.19345e-05H12V568Z" fill="#ECE1D5"/>
<path d="M12 568L39 568V-2.19345e-05H12V568Z" fill="#B4E2EB"/>
<path d="M120 568L147 568V-2.19345e-05H120V568Z" fill="#ECE1D5"/>
<path d="M120 568L147 568V-2.19345e-05H120V568Z" fill="#B4E2EB"/>
<path d="M228 568L255 568V-2.19345e-05H228V568Z" fill="#ECE1D5"/>
<path d="M228 568L255 568V-2.19345e-05H228V568Z" fill="#B4E2EB"/>
<path d="M66 568L93 568V-2.19345e-05H66V568Z" fill="#ECE1D5"/>
<path d="M66 568L93 568V-2.19345e-05H66V568Z" fill="#B4E2EB"/>
<path d="M174 568L201 568V-2.19345e-05H174V568Z" fill="#ECE1D5"/>
<path d="M174 568L201 568V-2.19345e-05H174V568Z" fill="#B4E2EB"/>
<path d="M282 568L309 568V-2.19345e-05H282V568Z" fill="#ECE1D5"/>
<path d="M282 568L309 568V-2.19345e-05H282V568Z" fill="#B4E2EB"/>
</svg>
