<svg width="165" height="297" viewBox="0 0 165 297" fill="none" xmlns="http://www.w3.org/2000/svg">
<g filter="url(#filter0_d_70_128)">
<rect x="46.2111" y="260.441" width="71.0815" height="8.23704" fill="#DDCCAB" stroke="white" stroke-width="3"/>
<rect x="75.3889" y="290.374" width="50.1333" height="12.7259" rx="6.36296" transform="rotate(-90 75.3889 290.374)" fill="#DDCCAB" stroke="white" stroke-width="3"/>
<path d="M49.7869 245.358L38.3579 283.2C37.1663 287.145 40.1196 291.122 44.2411 291.122C46.9508 291.122 49.3408 289.347 50.1242 286.753L61.5532 248.911C62.7447 244.966 59.7915 240.989 55.67 240.989C52.9603 240.989 50.5703 242.764 49.7869 245.358Z" fill="#DDCCAB" stroke="white" stroke-width="3"/>
<path d="M114.065 244.652L125.768 282.229C127.027 286.27 124.007 290.374 119.774 290.374C117.026 290.374 114.597 288.587 113.78 285.963L102.076 248.386C100.818 244.344 103.838 240.241 108.071 240.241C110.819 240.241 113.247 242.028 114.065 244.652Z" fill="#DDCCAB" stroke="white" stroke-width="3"/>
<rect x="30.5" y="236.5" width="104" height="11.9778" rx="5.98889" fill="#DDCCAB" stroke="white" stroke-width="3"/>
<rect x="73.5" y="39.5" width="38" height="16" rx="8" transform="rotate(-90 73.5 39.5)" fill="#DDCCAB" stroke="white" stroke-width="3"/>
<path d="M104.183 25.5H60.038C58.2265 25.5 56.5311 26.3921 55.5051 27.8851L52.0692 32.8851C49.5614 36.5344 52.1742 41.5 56.6021 41.5H107.962C112.504 41.5 115.089 36.3066 112.35 32.6835L108.57 27.6835C107.531 26.3083 105.907 25.5 104.183 25.5Z" fill="#DDCCAB" stroke="white" stroke-width="3"/>
<circle cx="69.5" cy="33.5" r="2.5" fill="#929292"/>
<circle cx="94.5" cy="33.5" r="2.5" fill="#929292"/>
<g filter="url(#filter1_d_70_128)">
<rect x="1.5" y="38.5" width="162" height="198" rx="3.5" fill="#F7F4E7" stroke="white" stroke-width="3"/>
</g>
</g>
<defs>
<filter id="filter0_d_70_128" x="0" y="0" width="165" height="296.622" filterUnits="userSpaceOnUse" color-interpolation-filters="sRGB">
<feFlood flood-opacity="0" result="BackgroundImageFix"/>
<feColorMatrix in="SourceAlpha" type="matrix" values="0 0 0 0 0 0 0 0 0 0 0 0 0 0 0 0 0 0 127 0" result="hardAlpha"/>
<feOffset dy="4"/>
<feComposite in2="hardAlpha" operator="out"/>
<feColorMatrix type="matrix" values="0 0 0 0 0 0 0 0 0 0 0 0 0 0 0 0 0 0 0.25 0"/>
<feBlend mode="normal" in2="BackgroundImageFix" result="effect1_dropShadow_70_128"/>
<feBlend mode="normal" in="SourceGraphic" in2="effect1_dropShadow_70_128" result="shape"/>
</filter>
<filter id="filter1_d_70_128" x="0" y="37" width="165" height="206" filterUnits="userSpaceOnUse" color-interpolation-filters="sRGB">
<feFlood flood-opacity="0" result="BackgroundImageFix"/>
<feColorMatrix in="SourceAlpha" type="matrix" values="0 0 0 0 0 0 0 0 0 0 0 0 0 0 0 0 0 0 127 0" result="hardAlpha"/>
<feOffset dy="5"/>
<feComposite in2="hardAlpha" operator="out"/>
<feColorMatrix type="matrix" values="0 0 0 0 0.905882 0 0 0 0 0.905882 0 0 0 0 0.905882 0 0 0 1 0"/>
<feBlend mode="normal" in2="BackgroundImageFix" result="effect1_dropShadow_70_128"/>
<feBlend mode="normal" in="SourceGraphic" in2="effect1_dropShadow_70_128" result="shape"/>
</filter>
</defs>
</svg>
