<svg width="75" height="75" viewBox="0 0 75 75" fill="none" xmlns="http://www.w3.org/2000/svg">
<g filter="url(#filter0_d_23_8)">
<g filter="url(#filter1_d_23_8)">
<rect x="7.92068" y="0.879211" width="60" height="60" rx="18" fill="#FFA451"/>
<rect x="7.92068" y="0.879211" width="60" height="60" rx="18" fill="url(#paint0_radial_23_8)" fill-opacity="0.33" style="mix-blend-mode:color-burn"/>
<rect x="9.92068" y="2.87921" width="56" height="56" rx="16" stroke="white" stroke-width="4"/>
</g>
<g filter="url(#filter2_d_23_8)">
<path d="M54.8879 31.248C54.8879 40.415 47.4566 47.8464 38.2895 47.8464C29.1225 47.8464 21.6912 40.415 21.6912 31.248C21.6912 22.081 29.1225 14.6497 38.2895 14.6497C47.4566 14.6497 54.8879 22.081 54.8879 31.248Z" fill="#FFA451"/>
<path d="M53.6379 31.248C53.6379 39.7247 46.7662 46.5964 38.2895 46.5964C29.8129 46.5964 22.9412 39.7247 22.9412 31.248C22.9412 22.7714 29.8129 15.8997 38.2895 15.8997C46.7662 15.8997 53.6379 22.7714 53.6379 31.248Z" stroke="white" stroke-width="2.5"/>
</g>
</g>
<defs>
<filter id="filter0_d_23_8" x="0.920685" y="0.879211" width="74" height="74" filterUnits="userSpaceOnUse" color-interpolation-filters="sRGB">
<feFlood flood-opacity="0" result="BackgroundImageFix"/>
<feColorMatrix in="SourceAlpha" type="matrix" values="0 0 0 0 0 0 0 0 0 0 0 0 0 0 0 0 0 0 127 0" result="hardAlpha"/>
<feOffset dy="7"/>
<feGaussianBlur stdDeviation="3.5"/>
<feComposite in2="hardAlpha" operator="out"/>
<feColorMatrix type="matrix" values="0 0 0 0 0 0 0 0 0 0 0 0 0 0 0 0 0 0 0.33 0"/>
<feBlend mode="darken" in2="BackgroundImageFix" result="effect1_dropShadow_23_8"/>
<feBlend mode="normal" in="SourceGraphic" in2="effect1_dropShadow_23_8" result="shape"/>
</filter>
<filter id="filter1_d_23_8" x="7.92068" y="0.879211" width="60" height="65" filterUnits="userSpaceOnUse" color-interpolation-filters="sRGB">
<feFlood flood-opacity="0" result="BackgroundImageFix"/>
<feColorMatrix in="SourceAlpha" type="matrix" values="0 0 0 0 0 0 0 0 0 0 0 0 0 0 0 0 0 0 127 0" result="hardAlpha"/>
<feOffset dy="5"/>
<feComposite in2="hardAlpha" operator="out"/>
<feColorMatrix type="matrix" values="0 0 0 0 0.905882 0 0 0 0 0.905882 0 0 0 0 0.905882 0 0 0 1 0"/>
<feBlend mode="normal" in2="BackgroundImageFix" result="effect1_dropShadow_23_8"/>
<feBlend mode="normal" in="SourceGraphic" in2="effect1_dropShadow_23_8" result="shape"/>
</filter>
<filter id="filter2_d_23_8" x="16.6912" y="10.6497" width="43.1967" height="43.1967" filterUnits="userSpaceOnUse" color-interpolation-filters="sRGB">
<feFlood flood-opacity="0" result="BackgroundImageFix"/>
<feColorMatrix in="SourceAlpha" type="matrix" values="0 0 0 0 0 0 0 0 0 0 0 0 0 0 0 0 0 0 127 0" result="hardAlpha"/>
<feOffset dy="1"/>
<feGaussianBlur stdDeviation="2.5"/>
<feComposite in2="hardAlpha" operator="out"/>
<feColorMatrix type="matrix" values="0 0 0 0 0 0 0 0 0 0 0 0 0 0 0 0 0 0 0.5 0"/>
<feBlend mode="color-burn" in2="BackgroundImageFix" result="effect1_dropShadow_23_8"/>
<feBlend mode="normal" in="SourceGraphic" in2="effect1_dropShadow_23_8" result="shape"/>
</filter>
<radialGradient id="paint0_radial_23_8" cx="0" cy="0" r="1" gradientUnits="userSpaceOnUse" gradientTransform="translate(37.9207 30.8792) rotate(89.4032) scale(47.2157)">
<stop stop-opacity="0"/>
<stop offset="1"/>
</radialGradient>
</defs>
</svg>
