<svg width="38" height="60" viewBox="0 0 38 60" fill="none" xmlns="http://www.w3.org/2000/svg">
<g filter="url(#filter0_d_77_132)">
<rect x="2.4873" y="23.0901" width="29.9569" height="29.9569" rx="2" transform="rotate(-4.41914 2.4873 23.0901)" fill="#F2EFE2"/>
<rect x="2.4873" y="23.0901" width="29.9569" height="29.9569" rx="2" transform="rotate(-4.41914 2.4873 23.0901)" fill="#CEBD9C"/>
<rect x="1.14471" y="21.9401" width="32.4569" height="32.4569" rx="3.25" transform="rotate(-4.41914 1.14471 21.9401)" stroke="white" stroke-width="2.5"/>
</g>
<path d="M23.4285 32.4875C23.437 32.5978 23.4316 32.7386 23.4122 32.9099C23.3927 33.0812 23.3701 33.2527 23.3442 33.4245C23.3248 33.5958 23.3041 33.7508 23.2822 33.8896C23.2603 34.0284 23.2511 34.1206 23.2546 34.166C23.298 34.2214 23.3225 34.2848 23.328 34.3562C23.3295 34.3757 23.3243 34.3924 23.3123 34.4064C23.3003 34.4204 23.2891 34.4441 23.2786 34.4776C23.2677 34.5046 23.2577 34.5445 23.2487 34.5974C23.2393 34.6439 23.238 34.7125 23.2451 34.8034L23.2511 34.8813C23.2366 34.9477 23.1937 35.0261 23.1223 35.1165C23.051 35.2069 22.9981 35.2828 22.9636 35.3443C22.9182 35.4327 22.8756 35.5143 22.8356 35.5892C22.8022 35.6637 22.7723 35.7411 22.7458 35.8215C22.7174 35.8759 22.7087 35.9321 22.7197 35.99C22.7302 36.0414 22.7245 36.0941 22.7025 36.148C22.6861 36.1885 22.6561 36.2235 22.6127 36.2529C22.5693 36.2824 22.5396 36.3206 22.5236 36.3676C22.4777 36.4495 22.4485 36.5366 22.4361 36.629C22.4301 36.7209 22.4039 36.8045 22.3575 36.8799C22.2946 36.9958 22.2023 37.1107 22.0805 37.2246C21.9652 37.3379 21.8619 37.4373 21.7705 37.5228C21.7156 37.5727 21.653 37.6069 21.5826 37.6254C21.5122 37.6439 21.453 37.6812 21.4051 37.7371C21.3931 37.7511 21.3821 37.7781 21.3722 37.818C21.3617 37.8515 21.3447 37.8854 21.3213 37.9199C21.3043 37.9539 21.2771 37.9821 21.2397 38.0046C21.2087 38.0265 21.1633 38.03 21.1033 38.0151C21.0155 38.1459 20.913 38.2975 20.7957 38.4698C20.6779 38.6357 20.5636 38.762 20.4528 38.8489C20.4218 38.8709 20.3869 38.8834 20.3479 38.8864C20.3155 38.8889 20.2838 38.9012 20.2528 38.9232L20.2042 39.0543C20.1168 39.1067 20.0372 39.1749 19.9653 39.2588C19.8994 39.3357 19.8343 39.4224 19.7699 39.5188C19.7051 39.6087 19.6404 39.7018 19.576 39.7982C19.5177 39.8876 19.452 39.9678 19.3791 40.0387C19.3847 40.2799 19.3743 40.5256 19.348 40.7757C19.3216 41.0259 19.2418 41.2606 19.1085 41.4799C19.0566 41.4839 19.0017 41.4914 18.9438 41.5024C18.8923 41.5129 18.8407 41.5202 18.7887 41.5242C18.5421 41.5432 18.3243 41.5144 18.1356 41.4375C17.9528 41.3537 17.764 41.2344 17.5692 41.0797C17.5802 41.0527 17.5837 41.0133 17.5797 40.9614C17.5726 40.8705 17.5436 40.7911 17.4927 40.7232C17.4412 40.6488 17.412 40.5662 17.405 40.4753C17.3969 40.3715 17.4024 40.2731 17.4213 40.1802C17.4403 40.0874 17.4592 39.9945 17.4782 39.9016C17.5031 39.8017 17.5215 39.7023 17.5335 39.6035C17.5449 39.4981 17.5362 39.3845 17.5071 39.2627C17.567 39.1928 17.6167 39.1171 17.6561 39.0357C17.6955 38.9543 17.7317 38.8731 17.7646 38.7922C17.804 38.7108 17.8437 38.6327 17.8836 38.5578C17.9231 38.4764 17.9692 38.3977 18.0221 38.3218C18.093 38.2249 18.1746 38.1402 18.2669 38.0678C18.3588 37.9889 18.4541 37.9129 18.553 37.84C18.6518 37.767 18.7474 37.6944 18.8398 37.6219C18.9386 37.549 19.0305 37.4701 19.1153 37.3851C19.1697 37.3287 19.2074 37.267 19.2283 37.2001C19.2488 37.1267 19.286 37.0585 19.3399 36.9956C19.4437 36.9876 19.5261 36.9551 19.587 36.8981C19.6544 36.8407 19.7323 36.7922 19.8206 36.7528C19.8721 36.7422 19.9097 36.723 19.9337 36.695C19.9637 36.6601 19.9839 36.6259 19.9943 36.5924C20.0108 36.552 20.0208 36.512 20.0243 36.4726C20.0342 36.4326 20.0442 36.3927 20.0542 36.3527C20.1311 36.3337 20.1972 36.3025 20.2526 36.259C20.308 36.2156 20.3599 36.1691 20.4084 36.1196C20.4633 36.0697 20.5149 36.02 20.5633 35.9705C20.6118 35.9211 20.6704 35.8774 20.7393 35.8394C20.7383 35.7415 20.7547 35.6586 20.7887 35.5907C20.8226 35.5228 20.8568 35.4581 20.8912 35.3967C20.9316 35.3283 20.9618 35.2541 20.9817 35.1742C21.0012 35.0878 21.0029 34.9832 20.9869 34.8604C21.0533 34.79 21.1029 34.7143 21.1358 34.6334C21.1748 34.5455 21.2172 34.4606 21.2631 34.3787L21.2533 34.2521C21.2313 34.1363 21.236 34.0282 21.2674 33.9278C21.3053 33.8269 21.3525 33.7188 21.4089 33.6034C21.3889 33.5136 21.3786 33.4229 21.3781 33.3316C21.377 33.2337 21.373 33.1393 21.366 33.0484C21.362 32.9965 21.3497 32.9224 21.3292 32.826C21.3147 32.7227 21.2969 32.6196 21.2759 32.5167C21.2544 32.4074 21.2301 32.3048 21.2031 32.2089C21.1826 32.1125 21.1609 32.0424 21.1379 31.9984C21.0979 31.9036 21.0235 31.7853 20.9146 31.6435C20.8122 31.5012 20.6935 31.3602 20.5587 31.2205C20.4303 31.0802 20.2964 30.9534 20.1571 30.8401C20.0242 30.7263 19.9106 30.6502 19.8162 30.6118C19.7353 30.5789 19.6454 30.5564 19.5465 30.5445C19.4542 30.532 19.359 30.5263 19.2612 30.5274C19.1628 30.5219 19.0647 30.5197 18.9668 30.5207C18.8749 30.5148 18.7863 30.5085 18.7009 30.5021C18.5896 30.4976 18.4775 30.4834 18.3646 30.4595C18.2517 30.4356 18.1336 30.4284 18.0103 30.4379C17.913 30.4454 17.8044 30.4767 17.6845 30.5317C17.5712 30.5861 17.4609 30.6371 17.3535 30.6846C17.2267 30.7335 17.1064 30.782 16.9926 30.83C16.8788 30.878 16.7754 30.9349 16.6826 31.0009C16.5897 31.0668 16.5078 31.1482 16.437 31.2451C16.3656 31.3355 16.306 31.4512 16.2581 31.592C16.1683 31.6969 16.0971 31.7905 16.0447 31.8729C15.9983 31.9483 15.9619 32.0263 15.9355 32.1067C15.9155 32.1866 15.9028 32.2757 15.8974 32.3741C15.8984 32.4719 15.9009 32.5893 15.905 32.7261C15.9095 32.7845 15.904 32.8404 15.8886 32.8939C15.8731 32.9473 15.8674 33 15.8714 33.0519C15.8774 33.1298 15.9092 33.2449 15.9666 33.3972C16.0241 33.5494 16.0614 33.7359 16.0784 33.9566C16.0955 34.1773 16.17 34.3805 16.3018 34.5662C16.4402 34.7514 16.5881 34.9326 16.7454 35.1098C16.9088 35.28 17.0556 35.4482 17.186 35.6145C17.3229 35.7802 17.3984 35.9539 17.4124 36.1357C17.4249 36.298 17.3968 36.4405 17.3279 36.5634C17.2651 36.6793 17.1792 36.7936 17.0704 36.9065C16.9001 36.9001 16.7246 36.9104 16.5439 36.9374C16.3691 36.9575 16.1958 36.9545 16.0241 36.9286C15.9512 36.9147 15.884 36.8905 15.8226 36.856C15.7606 36.8151 15.6957 36.7777 15.6278 36.7438C15.5659 36.7028 15.5012 36.6687 15.4338 36.6412C15.3663 36.6138 15.2937 36.6031 15.2158 36.6091C15.1094 36.4149 14.9755 36.2457 14.8142 36.1014C14.6593 35.9567 14.4955 35.8224 14.3227 35.6986L14.3129 35.5721C14.3138 35.4153 14.2853 35.2575 14.2273 35.0987C14.1694 34.94 14.1016 34.782 14.0242 34.6247C13.9527 34.4604 13.8845 34.2959 13.8195 34.1312C13.7541 33.9599 13.7146 33.7867 13.701 33.6114C13.6925 33.5011 13.7004 33.3927 13.7249 33.2864C13.7553 33.173 13.7732 33.0671 13.7787 32.9688C13.7841 32.8704 13.7861 32.769 13.7846 32.6647C13.7825 32.5538 13.7872 32.4457 13.7987 32.3404C13.8096 32.2285 13.8311 32.1256 13.863 32.0317C13.8944 31.9314 13.9463 31.8425 14.0187 31.7651C14.0002 31.6947 13.9784 31.6245 13.9534 31.5546C13.9279 31.4782 13.9124 31.4043 13.9069 31.3329L13.8964 31.1966C13.9833 31.1377 14.0494 31.064 14.0948 30.9756C14.1402 30.8872 14.1958 30.8045 14.2617 30.7276C14.3206 30.6447 14.3805 30.5748 14.4414 30.5178C14.5083 30.4539 14.5687 30.3905 14.6226 30.3275C14.6765 30.2646 14.7234 30.1957 14.7633 30.1208C14.8033 30.0458 14.8287 29.9525 14.8396 29.8406C14.8846 29.8306 14.9382 29.8069 15.0006 29.7694C15.069 29.7249 15.1339 29.6775 15.1953 29.627C15.2632 29.5761 15.3244 29.5224 15.3788 29.4659C15.4332 29.4095 15.4721 29.364 15.4956 29.3296C15.528 29.3271 15.5575 29.328 15.5839 29.3325C15.6169 29.3365 15.6431 29.3377 15.6626 29.3362C15.7145 29.3322 15.7609 29.2993 15.8019 29.2373C15.8493 29.1749 15.8982 29.1319 15.9486 29.1084C16.043 29.062 16.1451 29.0312 16.2549 29.0162C16.3713 29.0007 16.4766 28.9697 16.571 28.9232C16.6783 28.8758 16.7682 28.8133 16.8405 28.7359C16.9194 28.658 17.0128 28.5985 17.1206 28.5575C17.3048 28.491 17.5168 28.4453 17.7564 28.4202C17.9961 28.3952 18.216 28.3684 18.4163 28.3399C18.4497 28.3503 18.4799 28.3611 18.5069 28.372C18.5339 28.383 18.5636 28.3872 18.596 28.3847C18.6739 28.3787 18.7476 28.36 18.817 28.3285C18.8864 28.297 18.9568 28.2785 19.0282 28.273C19.1126 28.2665 19.1917 28.2767 19.2656 28.3036C19.339 28.324 19.4127 28.3477 19.4866 28.3747C19.56 28.3951 19.6332 28.4123 19.7061 28.4263C19.7855 28.4397 19.8696 28.43 19.9585 28.397C20.0219 28.4574 20.0876 28.5045 20.1555 28.5385C20.2294 28.5654 20.3031 28.5891 20.3765 28.6095C20.4559 28.623 20.5323 28.6399 20.6057 28.6604C20.6851 28.6738 20.7587 28.6975 20.8267 28.7315C20.962 28.7928 21.0826 28.8749 21.1885 28.9778C21.3009 29.0801 21.4337 29.1514 21.587 29.1918C21.5996 29.2692 21.6238 29.3294 21.6598 29.3723C21.6952 29.4087 21.7372 29.4447 21.7856 29.4801C21.8336 29.5091 21.8815 29.538 21.9295 29.5669C21.9834 29.5889 22.0284 29.6213 22.0643 29.6643C22.0863 29.6952 22.0985 29.7269 22.1011 29.7594C22.1036 29.7918 22.1158 29.8235 22.1378 29.8545C22.2372 29.9578 22.3491 30.0536 22.4734 30.142C22.6043 30.2298 22.7279 30.3084 22.8443 30.3778C22.8538 30.5011 22.8793 30.6199 22.9208 30.7343C22.9683 30.8416 23.0437 30.9305 23.1471 31.0008C23.1371 31.0408 23.1339 31.0835 23.1374 31.1289C23.1409 31.1743 23.1444 31.2198 23.1479 31.2652C23.164 31.4729 23.2092 31.6784 23.2837 31.8816C23.3642 32.0778 23.4124 32.2798 23.4285 32.4875ZM19.5966 42.8526L19.6305 43.2907C19.6395 43.4076 19.6458 43.5312 19.6493 43.6615C19.6589 43.7848 19.6519 43.9062 19.6285 44.0255C19.4682 44.1489 19.2943 44.2636 19.1066 44.3695C18.9258 44.4814 18.7316 44.5454 18.5239 44.5614C18.4071 44.5705 18.282 44.5573 18.1487 44.5219C18.0223 44.4924 17.904 44.4396 17.7936 44.3632C17.6837 44.2933 17.592 44.2057 17.5186 44.1004C17.4452 43.9951 17.4032 43.8743 17.3926 43.7379C17.3796 43.5692 17.4095 43.4069 17.4824 43.2511C17.5612 43.0883 17.6138 42.9242 17.6402 42.7589C17.7825 42.6565 17.933 42.5763 18.0918 42.5183C18.2565 42.4534 18.4233 42.4144 18.5921 42.4013C18.7803 42.3868 18.9685 42.4147 19.1568 42.485C19.3451 42.5553 19.4917 42.6779 19.5966 42.8526Z" fill="white"/>
<path d="M9.29633 11.8657C9.3003 11.9281 9.31182 11.9861 9.33089 12.0397C9.34996 12.0932 9.36148 12.1512 9.36545 12.2136C9.36843 12.2604 9.35921 12.3001 9.33781 12.3328C9.3203 12.3652 9.30731 12.4071 9.29884 12.4586C9.28042 12.538 9.25834 12.6216 9.23261 12.7094C9.20664 12.7932 9.18274 12.8789 9.16091 12.9664C9.14298 13.0536 9.12894 13.1406 9.11881 13.2274C9.11258 13.3139 9.11791 13.3977 9.13482 13.4788C9.08031 13.5449 9.03423 13.6203 8.99655 13.7049C8.96253 13.7853 8.93266 13.8694 8.90693 13.9572C8.88121 14.0449 8.85743 14.1326 8.8356 14.2201C8.81402 14.3115 8.79012 14.3971 8.76389 14.4771C8.65091 14.5469 8.53595 14.5855 8.419 14.593C8.34883 14.5974 8.27144 14.5808 8.18685 14.5432C8.1064 14.5092 8.0291 14.4632 7.95496 14.4053C7.88497 14.351 7.82422 14.2884 7.77273 14.2173C7.72123 14.1462 7.69325 14.0755 7.68878 14.0054C7.68258 13.9079 7.69014 13.8115 7.71148 13.7162C7.73281 13.6209 7.74 13.5187 7.73305 13.4096C7.73032 13.3667 7.74903 13.3224 7.78919 13.2768C7.82909 13.2273 7.85352 13.1807 7.86249 13.1371C7.8654 13.1213 7.87059 13.0798 7.87806 13.0128C7.88529 12.9419 7.89032 12.8672 7.89315 12.7888C7.89989 12.71 7.90297 12.6355 7.9024 12.5651C7.90573 12.4944 7.90495 12.4514 7.90006 12.436C7.95481 12.3738 7.99737 12.3046 8.02774 12.2283C8.06201 12.1517 8.09031 12.0736 8.11263 11.9939C8.13861 11.9101 8.16276 11.8283 8.18508 11.7486C8.20716 11.665 8.23351 11.587 8.26413 11.5146C8.25509 11.4956 8.24982 11.4744 8.24834 11.451C8.24685 11.4276 8.24536 11.4042 8.24387 11.3808C8.23742 11.2795 8.24681 11.181 8.27204 11.0855C8.29727 10.9899 8.30666 10.8915 8.3002 10.7901C8.29623 10.7277 8.28654 10.6677 8.27112 10.61C8.2557 10.5522 8.24601 10.4922 8.24204 10.4298C8.23683 10.3479 8.24331 10.2653 8.26149 10.182C8.27942 10.0947 8.28566 10.0082 8.2802 9.92244C8.27573 9.85227 8.26027 9.76323 8.23383 9.65532C8.20715 9.54351 8.17254 9.43024 8.13001 9.31552C8.09137 9.20056 8.04544 9.09389 7.99221 8.99551C7.93898 8.89713 7.88371 8.82823 7.8264 8.78883C7.76455 8.61663 7.63812 8.53661 7.4471 8.54877C7.36134 8.55423 7.27084 8.5776 7.17562 8.61889C7.08429 8.65993 6.99566 8.71254 6.90972 8.77673C6.82353 8.83701 6.74576 8.90655 6.6764 8.98533C6.6107 9.05997 6.56084 9.13751 6.52682 9.21796C6.52051 9.24185 6.51603 9.26366 6.51337 9.2834C6.51461 9.30289 6.51001 9.32276 6.49955 9.34299C6.46868 9.4115 6.42563 9.47295 6.37038 9.52735C6.31878 9.57761 6.27755 9.63699 6.24668 9.70549C6.21656 9.78569 6.20033 9.86892 6.19799 9.95518C6.19565 10.0414 6.18747 10.1281 6.17344 10.2151C6.11454 10.2736 6.06393 10.3395 6.02162 10.4126C5.97931 10.4858 5.93285 10.5553 5.88224 10.6211C5.88249 10.625 5.87485 10.6588 5.85933 10.7224C5.84381 10.786 5.82343 10.8656 5.7982 10.9611C5.77687 11.0564 5.75214 11.1598 5.724 11.2712C5.69976 11.3823 5.67515 11.4876 5.65017 11.587C5.62883 11.6823 5.61053 11.7637 5.59526 11.8313C5.57999 11.8988 5.57247 11.9345 5.57272 11.9384C5.57694 12.0046 5.58908 12.0724 5.60914 12.1415C5.62895 12.2068 5.64097 12.2726 5.64519 12.3389C5.6499 12.4129 5.64877 12.4874 5.64179 12.5622C5.63456 12.6331 5.63318 12.7037 5.63765 12.7738C5.64882 12.9492 5.6774 13.1216 5.72341 13.2909C5.76916 13.4563 5.79775 13.6287 5.80917 13.808C5.81636 13.921 5.80623 14.0078 5.77876 14.0683C5.75155 14.1326 5.71774 14.1856 5.67734 14.2274C5.64084 14.2688 5.60421 14.3083 5.56746 14.3459C5.53461 14.3832 5.5142 14.4315 5.50623 14.4907L5.4704 14.4813C5.43506 14.4796 5.39828 14.4858 5.36004 14.5C5.32205 14.5181 5.28406 14.5362 5.24606 14.5542C5.20832 14.5762 5.16838 14.5944 5.12624 14.6088C5.08825 14.6269 5.04587 14.6374 4.99909 14.6404C4.91722 14.6456 4.84154 14.625 4.77204 14.5786C4.70254 14.5321 4.63997 14.4715 4.58433 14.3968C4.53284 14.3257 4.49071 14.2481 4.45797 14.1641C4.42522 14.08 4.40661 14.003 4.40214 13.9328C4.38775 13.7067 4.38505 13.4798 4.39405 13.2522C4.40304 13.0246 4.40022 12.7958 4.38558 12.5658C4.36697 12.2735 4.34835 11.9811 4.32974 11.6887C4.31088 11.3924 4.28824 11.0984 4.26184 10.8065C4.2596 10.7714 4.25164 10.7386 4.23796 10.7082C4.22428 10.6777 4.21645 10.6469 4.21447 10.6157C4.21223 10.5807 4.21597 10.5471 4.22568 10.5152C4.23539 10.4833 4.239 10.4478 4.23652 10.4088C4.2323 10.3426 4.21627 10.2751 4.18841 10.2064C4.16055 10.1377 4.14439 10.0683 4.13992 9.99813C4.13645 9.94356 4.14284 9.89031 4.15911 9.83839C4.17537 9.78647 4.18567 9.73297 4.18999 9.6779C4.20445 9.53607 4.20708 9.39303 4.1979 9.24879C4.18524 9.04998 4.16881 8.85336 4.14861 8.65894C4.12816 8.46062 4.1116 8.26205 4.09894 8.06323C4.09597 8.01645 4.09104 7.9698 4.08416 7.92326C4.07729 7.87673 4.06079 7.83277 4.03467 7.79138C4.04289 7.73606 4.05526 7.68438 4.07177 7.63636C4.09218 7.58809 4.10053 7.53472 4.0968 7.47625C4.0911 7.38658 4.06614 7.30206 4.02195 7.22268C3.97751 7.13939 3.95243 7.05292 3.94672 6.96326C3.93804 6.82682 3.94105 6.68963 3.95575 6.5517C3.97021 6.40987 3.97309 6.27073 3.96441 6.13429C3.95721 6.02124 3.94234 5.91063 3.9198 5.80247C3.89701 5.69041 3.88201 5.57785 3.87482 5.4648C3.86216 5.26598 3.91133 5.11607 4.02232 5.01507C4.13307 4.91016 4.27811 4.852 4.45743 4.84059C4.5198 4.83662 4.57948 4.82108 4.63647 4.79396C4.69736 4.7666 4.75314 4.75131 4.80382 4.74808C4.8311 4.74635 4.85511 4.7546 4.87585 4.77285C4.89633 4.78721 4.91329 4.80765 4.92672 4.8342C4.94015 4.86074 4.95359 4.88729 4.96702 4.91383C4.98045 4.94037 4.99741 4.96082 5.01789 4.97518L5.09615 5.00542C5.11348 5.03172 5.13536 5.09882 5.1618 5.20674C5.19189 5.3105 5.22066 5.42414 5.24809 5.54765C5.27917 5.66701 5.30611 5.78272 5.3289 5.89477C5.35144 6.00294 5.3637 6.07261 5.36569 6.1038C5.36941 6.16227 5.36521 6.2193 5.3531 6.27486C5.34073 6.32654 5.32641 6.37833 5.31015 6.43025C5.29388 6.48217 5.27956 6.53397 5.2672 6.58564C5.25483 6.63731 5.25051 6.69238 5.25423 6.75086C5.26416 6.90679 5.28578 7.06198 5.31909 7.21643C5.35216 7.36697 5.37379 7.52216 5.38396 7.682C5.3919 7.80674 5.38437 7.93443 5.36138 8.06506C5.33813 8.1918 5.33048 8.31754 5.33842 8.44228C5.34388 8.52805 5.3692 8.61842 5.41439 8.7134C5.46847 8.70213 5.51011 8.6799 5.53931 8.64673C5.57241 8.61331 5.59942 8.57636 5.62033 8.53589C5.64099 8.49152 5.65763 8.44545 5.67024 8.39768C5.68675 8.34966 5.70754 8.30723 5.73259 8.27041C5.7506 8.24578 5.77615 8.21675 5.80925 8.18333C5.8421 8.14602 5.87508 8.11065 5.90818 8.07723C5.94517 8.04356 5.9784 8.01209 6.00785 7.98281C6.03705 7.94964 6.05493 7.92306 6.06148 7.90307C6.07849 7.86285 6.0921 7.83067 6.10231 7.80653C6.11251 7.7824 6.13454 7.75947 6.16838 7.73774C6.21683 7.69943 6.26565 7.66697 6.31484 7.64035C6.36768 7.60959 6.40148 7.55655 6.41626 7.48124C6.54997 7.42967 6.68563 7.37798 6.82325 7.32617C6.96086 7.27435 7.10568 7.2436 7.25772 7.23392C7.37467 7.22648 7.49286 7.23853 7.61229 7.27006C7.73537 7.29746 7.85286 7.32912 7.96474 7.36505C8.07663 7.40099 8.18059 7.43547 8.27663 7.46849C8.37242 7.49762 8.45541 7.50995 8.52558 7.50549C8.55676 7.5035 8.59334 7.52466 8.6353 7.56896C8.67701 7.60936 8.71968 7.63404 8.76331 7.64301C8.8002 7.73068 8.82358 7.82118 8.83343 7.91449C8.84329 8.0078 8.86654 8.09635 8.90318 8.18013C8.94348 8.25976 8.99328 8.33487 9.05257 8.40547C9.11551 8.47191 9.16713 8.54495 9.20743 8.62459C9.20236 8.66796 9.19717 8.70939 9.19185 8.74887C9.18629 8.78445 9.18487 8.82369 9.1876 8.86657C9.19306 8.95233 9.21947 9.02893 9.26682 9.09637C9.31417 9.16382 9.35007 9.2359 9.37452 9.31263C9.39093 9.38595 9.4015 9.45965 9.40621 9.53371C9.41458 9.60364 9.42124 9.67758 9.4262 9.75555C9.4401 9.97386 9.45085 10.2041 9.45844 10.4463C9.46992 10.6882 9.46312 10.9196 9.43804 11.1404C9.43372 11.1955 9.42172 11.253 9.40205 11.313C9.38628 11.3727 9.36857 11.4325 9.3489 11.4925C9.33313 11.5522 9.31943 11.6137 9.30781 11.6771C9.29619 11.7405 9.29236 11.8033 9.29633 11.8657ZM15.751 11.8071L15.7539 11.8539C15.7648 11.9628 15.7529 12.0536 15.7184 12.1262C15.6878 12.1986 15.6449 12.262 15.5896 12.3164C15.5344 12.3708 15.4711 12.4218 15.3997 12.4694C15.3284 12.517 15.2573 12.5685 15.1865 12.6239L15.1895 12.6707C15.1937 12.737 15.1861 12.802 15.1667 12.8659C15.1509 12.9256 15.1391 12.987 15.1314 13.0501L15.108 13.0516C15.0491 13.0476 14.997 13.0606 14.952 13.0909C14.9109 13.1209 14.8688 13.1373 14.826 13.14C14.7909 13.1423 14.7531 13.1329 14.7126 13.112C14.6741 13.1223 14.6497 13.1376 14.6392 13.1578C14.6288 13.178 14.6184 13.2002 14.6082 13.2244C14.598 13.2485 14.5818 13.271 14.5597 13.292C14.5373 13.3091 14.4969 13.3195 14.4384 13.3232C14.4189 13.3245 14.3962 13.3377 14.3704 13.3628C14.3483 13.3838 14.3225 13.4089 14.293 13.4382C14.2675 13.4672 14.2418 13.4943 14.216 13.5194C14.1905 13.5484 14.1701 13.5673 14.155 13.5761C14.1363 13.5891 14.1113 13.5965 14.0801 13.5985C14.0492 13.6044 14.0142 13.6086 13.9753 13.6111C13.9404 13.6172 13.9055 13.6214 13.8704 13.6236C13.8355 13.6297 13.8046 13.6356 13.7776 13.6412C13.7469 13.651 13.7186 13.6685 13.6928 13.6936C13.6709 13.7185 13.6483 13.7317 13.6249 13.7332C13.5937 13.7352 13.564 13.7292 13.5357 13.7154C13.5113 13.7013 13.4835 13.6952 13.4523 13.6972C13.425 13.6989 13.3924 13.7088 13.3544 13.7269C13.3164 13.745 13.2747 13.7652 13.2291 13.7877C13.1836 13.8102 13.134 13.831 13.0804 13.85C13.0268 13.8691 12.9708 13.8805 12.9123 13.8842C12.8344 13.8892 12.7654 13.8818 12.7054 13.8622C12.7015 13.8624 12.6773 13.8502 12.6327 13.8257C12.5922 13.8048 12.5395 13.7768 12.4747 13.7418C12.4137 13.7065 12.3467 13.6678 12.2735 13.6254C12.2006 13.587 12.1317 13.5503 12.0669 13.5153C12.0018 13.4764 11.9469 13.4447 11.9023 13.4201C11.8577 13.3955 11.8313 13.3816 11.8233 13.3782L11.783 13.2985C11.7269 13.2786 11.6764 13.2525 11.6312 13.2201C11.59 13.1875 11.5559 13.1427 11.5287 13.0857C11.4883 13.0648 11.4533 13.0377 11.4237 13.0043C11.394 12.9671 11.3642 12.9299 11.3344 12.8926C11.3047 12.8554 11.2732 12.8221 11.24 12.7929C11.2066 12.7598 11.166 12.737 11.1182 12.7244C11.0782 12.6486 11.0401 12.5728 11.0039 12.4968C10.9678 12.4208 10.9316 12.3448 10.8955 12.2688L10.8092 12.2039C10.7999 12.181 10.7985 12.1596 10.8051 12.1396C10.8114 12.1157 10.8139 12.094 10.8127 12.0745C10.8117 12.0589 10.7959 12.0266 10.7654 11.9777C10.7388 11.9285 10.708 11.8757 10.6731 11.8192C10.6418 11.7585 10.6107 11.6998 10.5797 11.6431C10.5526 11.5861 10.538 11.542 10.5361 11.5109C10.5323 11.4524 10.5346 11.3955 10.5428 11.3402C10.551 11.2848 10.5534 11.2299 10.5499 11.1753C10.5469 11.1285 10.5343 11.0843 10.5121 11.0427C10.4897 10.9971 10.473 10.9512 10.4623 10.9049C10.4466 10.8433 10.4386 10.7792 10.4383 10.7127C10.4419 10.6459 10.4417 10.5814 10.4377 10.519C10.4347 10.4722 10.4239 10.4259 10.4054 10.3802C10.3868 10.3344 10.3759 10.2861 10.3727 10.2355C10.3697 10.1887 10.3806 10.1449 10.4054 10.1042C10.4302 10.0635 10.4413 10.0217 10.4385 9.9788C10.4306 9.85405 10.4052 9.73237 10.3624 9.61375C10.3194 9.49124 10.2939 9.36761 10.286 9.24286C10.2798 9.1454 10.2984 9.03853 10.3419 8.92225C10.3854 8.80597 10.4423 8.71624 10.5127 8.65305L10.4952 8.37821C10.5297 8.36818 10.554 8.34903 10.5678 8.32075C10.5856 8.29222 10.5992 8.26004 10.6086 8.22421C10.6181 8.18838 10.6256 8.15267 10.6312 8.11709C10.6404 8.07736 10.6519 8.04336 10.6658 8.01508C10.683 7.97875 10.7007 7.94827 10.7187 7.92364C10.7364 7.89511 10.7524 7.86866 10.7665 7.84427C10.7803 7.81599 10.7902 7.78601 10.796 7.75433C10.8015 7.71875 10.8008 7.67574 10.7936 7.62531C10.8584 7.5977 10.9167 7.56072 10.9686 7.51436C11.0204 7.46801 11.0702 7.41982 11.1179 7.36982C11.1695 7.31956 11.2212 7.27126 11.2731 7.2249C11.3288 7.1783 11.391 7.14107 11.4597 7.11321C11.5062 7.04371 11.5859 6.97405 11.6989 6.90423C11.8116 6.83052 11.9267 6.76252 12.044 6.70025C12.1614 6.63798 12.2656 6.58438 12.3567 6.53944C12.4475 6.4906 12.4943 6.45631 12.4969 6.43657C12.6068 6.44132 12.7203 6.43997 12.8372 6.43252C12.9542 6.42508 13.0712 6.41958 13.1884 6.41603C13.3056 6.41249 13.4214 6.41686 13.5357 6.42916C13.6497 6.43755 13.7589 6.46192 13.8632 6.50224C13.8764 6.52489 13.8914 6.54546 13.9083 6.56396C13.929 6.58221 13.9478 6.60059 13.9646 6.61909C13.9812 6.63369 13.9961 6.65231 14.0093 6.67496C14.0225 6.6976 14.03 6.72452 14.032 6.7557C14.1759 6.80135 14.3045 6.88514 14.4179 7.00709C14.535 7.12489 14.6337 7.26147 14.7141 7.41683C14.7981 7.56805 14.8631 7.72831 14.9091 7.8976C14.9548 8.063 14.9822 8.21587 14.9911 8.35621C14.9939 8.39909 14.9863 8.4348 14.9686 8.46333C14.9547 8.49161 14.9412 8.52574 14.9281 8.56571C14.9109 8.60204 14.9056 8.64152 14.9122 8.68415C14.9188 8.72679 14.9134 8.76432 14.8959 8.79674C14.8801 8.85646 14.8542 8.91095 14.8182 8.96021C14.7822 9.00947 14.7503 9.06239 14.7226 9.11895C14.6629 9.28715 14.599 9.45169 14.531 9.61259C14.4629 9.77349 14.379 9.93148 14.2793 10.0866C14.2399 10.1439 14.1926 10.1997 14.1373 10.2541C14.0821 10.3085 14.049 10.3733 14.0381 10.4483C13.968 10.4528 13.9145 10.4738 13.8777 10.5114C13.8407 10.545 13.8079 10.5824 13.7792 10.6233C13.7502 10.6604 13.7173 10.6958 13.6803 10.7294C13.6433 10.7631 13.5896 10.7802 13.5191 10.7808C13.4914 10.8374 13.4614 10.8882 13.429 10.9333C13.4003 10.9743 13.368 11.0194 13.332 11.0687C13.293 11.0711 13.2605 11.083 13.2344 11.1042C13.212 11.1213 13.1879 11.1424 13.1621 11.1675C13.1361 11.1888 13.108 11.2082 13.0778 11.2258C13.0476 11.2433 13.009 11.2517 12.9619 11.2507C12.9301 11.3037 12.892 11.3511 12.8477 11.393C12.8031 11.4311 12.7567 11.4693 12.7082 11.5076C12.6637 11.5457 12.6213 11.5875 12.5812 11.6331C12.5408 11.6748 12.5107 11.7257 12.4911 11.7856C12.4489 11.8001 12.399 11.815 12.3413 11.8304C12.2872 11.8417 12.2519 11.8713 12.2354 11.9193C12.2401 11.9934 12.2601 12.0626 12.2955 12.1269C12.3307 12.1873 12.3931 12.2146 12.4828 12.2089C12.5177 12.2654 12.5618 12.3135 12.6153 12.3531C12.6684 12.3889 12.7217 12.4266 12.7751 12.4662C12.8721 12.4522 12.9695 12.446 13.0675 12.4476C13.1654 12.4492 13.2631 12.4469 13.3606 12.4407C13.4776 12.4333 13.5685 12.4177 13.6336 12.394C13.6986 12.3703 13.7499 12.3455 13.7874 12.3196C13.8285 12.2896 13.8621 12.264 13.8882 12.2427C13.9179 12.2174 13.954 12.2013 13.9967 12.1947C14.045 12.0938 14.0956 11.9966 14.1484 11.9032C14.2011 11.8099 14.279 11.7423 14.382 11.7005C14.4095 11.64 14.4409 11.5793 14.4761 11.5184C14.5111 11.4535 14.5423 11.3889 14.5695 11.3245C14.6003 11.256 14.6195 11.1883 14.627 11.1213C14.6384 11.054 14.634 10.9858 14.614 10.9166C14.6461 10.8676 14.6813 10.8066 14.7197 10.7337C14.7618 10.6567 14.808 10.5833 14.8584 10.5135C14.9087 10.4438 14.9617 10.3837 15.0172 10.3332C15.0766 10.2824 15.1394 10.2549 15.2057 10.2507C15.268 10.2467 15.324 10.2647 15.3735 10.3046C15.4228 10.3406 15.4664 10.3809 15.5045 10.4254C15.5832 10.4322 15.6494 10.4573 15.703 10.5009C15.7603 10.5403 15.8046 10.5903 15.8359 10.6509C15.8708 10.7074 15.8965 10.7723 15.9129 10.8456C15.929 10.9151 15.9392 10.9829 15.9434 11.0492C15.9511 11.17 15.9401 11.3038 15.9103 11.4505C15.8844 11.597 15.8313 11.7159 15.751 11.8071ZM13.5681 7.95361C13.5489 7.95875 13.5351 7.95767 13.5268 7.95037C13.5222 7.93892 13.5175 7.92748 13.5129 7.91603C13.508 7.90068 13.5032 7.88729 13.4986 7.87584C13.4937 7.8605 13.487 7.84722 13.4785 7.83602C13.4575 7.81388 13.4148 7.78919 13.3504 7.76198C13.29 7.73451 13.222 7.71144 13.1464 7.69277C13.0745 7.66995 13.0009 7.65115 12.9256 7.63637C12.8542 7.62135 12.8009 7.61495 12.7658 7.61718C12.6879 7.62215 12.6244 7.63989 12.5755 7.6704C12.5304 7.70067 12.4894 7.73263 12.4524 7.7663C12.4154 7.79997 12.3783 7.83169 12.3411 7.86146C12.3077 7.89098 12.2639 7.90943 12.2095 7.9168C12.2118 7.95189 12.2041 7.98565 12.1866 8.01807C12.173 8.05025 12.1534 8.08085 12.1279 8.10988C12.1062 8.13866 12.0826 8.16756 12.0571 8.19659C12.0354 8.22536 12.0177 8.25389 12.0038 8.28217C11.9764 8.34263 11.959 8.40832 11.9518 8.47924C11.9443 8.54625 11.929 8.61377 11.906 8.68178C11.8795 8.75783 11.8508 8.83011 11.82 8.89862C11.7888 8.96322 11.7641 9.03525 11.7456 9.11471L11.6631 9.20216C11.6484 9.27747 11.6416 9.35618 11.6429 9.43829C11.6479 9.51626 11.6529 9.59423 11.6578 9.6722C11.6643 9.77355 11.6822 9.87027 11.7115 9.96234C11.7406 10.0505 11.7623 10.145 11.7766 10.2459C11.7788 10.281 11.7774 10.3202 11.7723 10.3636C11.767 10.4031 11.7657 10.4442 11.7684 10.4871C11.7697 10.5066 11.7708 10.5242 11.7718 10.5398C11.7767 10.5551 11.7856 10.5721 11.7985 10.5909L11.8278 10.589C11.8709 10.5902 11.9076 10.582 11.9377 10.5644C11.9679 10.5468 11.9959 10.5255 12.0217 10.5004C12.0475 10.4752 12.0713 10.4483 12.0929 10.4195C12.1143 10.3868 12.1397 10.3559 12.1692 10.3266C12.1913 10.3056 12.2159 10.2923 12.243 10.2867C12.27 10.281 12.2966 10.2676 12.3226 10.2464C12.3409 10.2256 12.3513 10.2054 12.354 10.1856C12.3564 10.162 12.3667 10.1398 12.385 10.1191C12.4181 10.0857 12.4592 10.0557 12.5084 10.029C12.5615 10.0022 12.6087 9.97568 12.6501 9.94956C12.6954 9.92319 12.7325 9.89147 12.7615 9.8544C12.7943 9.81708 12.8252 9.77989 12.8542 9.74282C12.887 9.7055 12.9221 9.67195 12.9593 9.64218C12.9963 9.60852 13.0418 9.5841 13.0956 9.56893C13.1172 9.54015 13.1437 9.49541 13.1751 9.4347C13.2062 9.37009 13.2371 9.30158 13.2677 9.22918C13.2983 9.15678 13.3252 9.08657 13.3482 9.01856C13.375 8.94641 13.391 8.89059 13.3963 8.85111L13.4197 8.84962C13.4587 8.84714 13.4872 8.83358 13.5052 8.80895C13.5268 8.78017 13.5526 8.75504 13.5826 8.73357C13.5993 8.68944 13.6083 8.64582 13.6095 8.60269C13.6143 8.55541 13.6153 8.51033 13.6126 8.46745C13.6069 8.37779 13.5936 8.29252 13.5728 8.21165C13.5559 8.13053 13.5544 8.04451 13.5681 7.95361ZM17.8116 4.51888C17.8183 4.62413 17.8132 4.72818 17.7963 4.83103C17.7832 4.93363 17.7663 5.03647 17.7455 5.13957C17.7283 5.23852 17.7112 5.33941 17.6943 5.44226C17.681 5.54096 17.6776 5.64099 17.684 5.74235C17.6897 5.83201 17.7088 5.9169 17.7413 5.99703C17.7738 6.07716 17.7929 6.16206 17.7986 6.25172C17.8118 6.45833 17.8053 6.66424 17.7793 6.86943C17.7529 7.07073 17.7463 7.27469 17.7595 7.4813C17.7657 7.57876 17.7814 7.6717 17.8066 7.76012C17.8357 7.84829 17.8589 7.93684 17.8763 8.02576C17.8913 8.13831 17.8985 8.25136 17.8979 8.36491C17.8971 8.47456 17.9003 8.58591 17.9075 8.69897C17.9087 8.71846 17.9123 8.74367 17.9181 8.77461C17.924 8.80555 17.93 8.83844 17.9362 8.87328C17.946 8.90397 17.9535 8.93088 17.9589 8.95402C17.9682 8.97692 17.973 8.99031 17.9732 8.99421L17.9404 9.03153C17.9436 9.08221 17.9526 9.13057 17.9672 9.1766C17.9819 9.22264 17.9907 9.26905 17.9937 9.31583C17.9994 9.40549 17.9915 9.49602 17.9699 9.58742C17.9481 9.67492 17.94 9.7635 17.9457 9.85317C17.9499 9.91944 17.9677 9.98289 17.9989 10.0435C18.0299 10.1003 18.0476 10.1618 18.0518 10.228C18.0548 10.2748 18.0549 10.3394 18.0524 10.4218C18.0498 10.5041 18.0455 10.5905 18.0395 10.6809C18.0335 10.7713 18.0292 10.8577 18.0266 10.9401C18.0241 11.0224 18.0243 11.087 18.0272 11.1338C18.0347 11.2507 18.045 11.3518 18.0583 11.4371C18.0713 11.5185 18.0856 11.59 18.1013 11.6516C18.117 11.7132 18.1301 11.7652 18.1406 11.8076C18.1509 11.8461 18.1571 11.8829 18.1594 11.918C18.1616 11.9531 18.1695 11.9858 18.1832 12.0163C18.1969 12.0467 18.2047 12.0775 18.2067 12.1087C18.2104 12.1672 18.2086 12.2299 18.2011 12.297C18.1934 12.3601 18.1914 12.4209 18.1951 12.4793C18.1993 12.5456 18.2151 12.6092 18.2425 12.6701C18.2698 12.731 18.2856 12.7945 18.2898 12.8608C18.294 12.9271 18.2864 12.9922 18.267 13.056C18.2474 13.116 18.2277 13.1759 18.208 13.2359C18.1845 13.2961 18.1644 13.3502 18.1479 13.3983C18.1316 13.4502 18.109 13.4947 18.0801 13.5317C18.055 13.5686 18.0197 13.5982 17.9742 13.6207C17.9286 13.6432 17.8669 13.6569 17.7889 13.6618C17.6642 13.6698 17.5478 13.6557 17.4398 13.6195C17.3321 13.5872 17.2369 13.5365 17.1542 13.4674C17.0718 13.4022 17.0039 13.3204 16.9507 13.222C16.9014 13.1234 16.8727 13.0117 16.8648 12.887C16.8628 12.8558 16.8669 12.8281 16.8771 12.804C16.8873 12.7798 16.8914 12.7522 16.8894 12.721C16.8875 12.6898 16.8797 12.6609 16.8663 12.6344C16.8526 12.6039 16.8448 12.5731 16.8428 12.5419C16.8406 12.5069 16.8503 12.4749 16.8719 12.4462C16.8936 12.4174 16.9032 12.3835 16.9007 12.3445C16.8987 12.3133 16.891 12.2845 16.8776 12.2579C16.8641 12.2314 16.8567 12.2064 16.8552 12.183C16.8515 12.1245 16.8519 12.0697 16.8565 12.0185C16.861 11.9674 16.8672 11.9102 16.8749 11.8471C16.8826 11.784 16.8878 11.7112 16.8904 11.6289C16.893 11.5465 16.8904 11.4449 16.8827 11.3241C16.8802 11.2851 16.8727 11.2288 16.8602 11.1552C16.8477 11.0817 16.833 11.0043 16.8161 10.9232C16.7992 10.8421 16.7845 10.7647 16.772 10.6911C16.7592 10.6137 16.7516 10.5554 16.7491 10.5165C16.7471 10.4853 16.751 10.4537 16.7607 10.4218C16.7704 10.3899 16.7741 10.3563 16.7719 10.3213C16.7697 10.2862 16.7561 10.2577 16.7312 10.2358C16.7064 10.2139 16.6929 10.1873 16.6909 10.1562C16.6882 10.1133 16.6916 10.0739 16.701 10.0381C16.7105 10.0023 16.7141 9.9668 16.7119 9.93171C16.7091 9.88883 16.7008 9.85022 16.6869 9.81588C16.6727 9.77764 16.6645 9.74098 16.6623 9.70589C16.6603 9.6747 16.6768 9.62668 16.7118 9.56183C16.7468 9.49697 16.7616 9.42166 16.7561 9.3359C16.7497 9.23454 16.7278 9.13612 16.6904 9.04065C16.653 8.94518 16.6308 8.84286 16.6239 8.73371C16.6159 8.60896 16.6137 8.48189 16.6172 8.3525C16.6205 8.21921 16.6181 8.0902 16.6102 7.96545C16.6045 7.87579 16.5968 7.78625 16.5872 7.69683C16.5774 7.60352 16.5693 7.50814 16.5631 7.41068C16.5609 7.37559 16.5472 7.34515 16.5221 7.31935C16.5009 7.2933 16.495 7.26236 16.5044 7.22653C16.4957 7.21144 16.4901 7.18635 16.4879 7.15126C16.4857 7.11618 16.4933 7.08242 16.5108 7.04999C16.5322 7.01732 16.5477 6.98306 16.5571 6.94723C16.5327 6.87051 16.5034 6.78038 16.4695 6.67687C16.4391 6.5692 16.4212 6.47249 16.4158 6.38672C16.4145 6.36723 16.4192 6.34932 16.4299 6.33298C16.4404 6.31274 16.4446 6.28703 16.4426 6.25584C16.4392 6.20127 16.4213 6.13586 16.3891 6.05963C16.3605 5.97926 16.3438 5.90203 16.3391 5.82796C16.3309 5.69932 16.3599 5.57026 16.426 5.4408C16.3908 5.38041 16.367 5.31343 16.3545 5.23986C16.342 5.16629 16.3332 5.09052 16.3283 5.01255C16.3231 4.93069 16.3181 4.85272 16.3134 4.77865C16.3123 4.70043 16.3076 4.62636 16.2992 4.55644C16.3219 4.54326 16.3343 4.5229 16.3364 4.49536C16.3425 4.46758 16.3466 4.43992 16.3488 4.41238C16.3546 4.3807 16.3626 4.35279 16.3728 4.32865C16.383 4.30452 16.4036 4.28951 16.4345 4.28362C16.4388 4.22855 16.4337 4.178 16.419 4.13196C16.4041 4.08203 16.3951 4.03367 16.3921 3.98689C16.3909 3.9674 16.3919 3.95168 16.395 3.93974C16.3979 3.9239 16.4027 3.90598 16.4092 3.88599C16.4732 3.84669 16.5468 3.80287 16.6298 3.75452C16.7165 3.70204 16.7988 3.67331 16.8768 3.66835C16.947 3.66388 17.0142 3.67525 17.0786 3.70247C17.1468 3.72944 17.2137 3.76433 17.279 3.80714C17.3441 3.84605 17.4073 3.88508 17.4685 3.92424C17.5336 3.96315 17.5961 3.99244 17.6561 4.01211C17.6629 4.05864 17.6736 4.10298 17.688 4.14512C17.7022 4.18335 17.7184 4.22342 17.7368 4.26531C17.7548 4.3033 17.7711 4.34336 17.7855 4.3855C17.7999 4.42764 17.8086 4.4721 17.8116 4.51888ZM25.1005 9.3566C25.104 9.41117 25.0899 9.46687 25.0583 9.52368C25.0267 9.58049 25.0068 9.63655 24.9985 9.69188C24.995 9.75864 24.9952 9.82322 24.9991 9.88559C25.0029 9.94406 25.0066 10.0025 25.0103 10.061C25.0167 10.1624 25.011 10.2567 24.9931 10.3439C24.9788 10.427 24.9566 10.5087 24.9265 10.5889C24.9 10.6649 24.8696 10.7412 24.8354 10.8178C24.8011 10.8943 24.7691 10.9766 24.7395 11.0646C24.7233 11.1165 24.7188 11.1697 24.7262 11.224C24.7336 11.2783 24.7329 11.3292 24.7242 11.3768C24.7113 11.4206 24.6923 11.461 24.6673 11.4978C24.642 11.5307 24.6249 11.569 24.6159 11.6126C24.6108 11.656 24.605 11.719 24.5986 11.8016C24.5957 11.8801 24.5851 11.959 24.5667 12.0385C24.5519 12.1138 24.5247 12.1782 24.485 12.2316C24.4454 12.285 24.388 12.3063 24.3129 12.2954C24.2852 12.3519 24.2534 12.4049 24.2174 12.4541C24.1853 12.5031 24.1594 12.5576 24.1397 12.6176L24.1163 12.6191C24.0539 12.623 24.0002 12.6402 23.9552 12.6704C23.914 12.7004 23.8601 12.7137 23.7933 12.7101C23.7519 12.7362 23.7188 12.7696 23.694 12.8103C23.669 12.8472 23.6421 12.8861 23.6134 12.927C23.5886 12.9678 23.5597 13.0068 23.5269 13.0441C23.494 13.0814 23.4529 13.1114 23.4035 13.1342C23.3845 13.1432 23.3594 13.1487 23.3282 13.1507C23.3011 13.1563 23.2701 13.1603 23.235 13.1625C23.1999 13.1647 23.1669 13.1688 23.136 13.1747C23.105 13.1805 23.078 13.1862 23.0548 13.1916C23.001 13.2067 22.9493 13.2237 22.8996 13.2426C22.854 13.265 22.804 13.278 22.7494 13.2815C22.6519 13.2877 22.5553 13.2762 22.4595 13.2471C22.3637 13.218 22.2671 13.2065 22.1696 13.2127C22.1151 13.2162 22.0606 13.2216 22.0063 13.229C21.9558 13.2361 21.9072 13.2411 21.8605 13.2441C21.7747 13.2496 21.6957 13.2389 21.6236 13.2122C21.5556 13.1892 21.4976 13.14 21.4498 13.0648L21.4264 13.0663C21.3796 13.0692 21.3383 13.066 21.3025 13.0565C21.2706 13.0468 21.2385 13.0352 21.2063 13.0216C21.178 13.0077 21.1478 12.994 21.1156 12.9804C21.0871 12.9626 21.0549 12.949 21.0191 12.9395C20.975 12.9854 20.9478 13.0498 20.9374 13.1326C20.9273 13.2194 20.9244 13.2959 20.9286 13.3622C20.935 13.4635 20.9473 13.5645 20.9655 13.6651C20.9839 13.7696 20.9963 13.8726 21.0027 13.9739C21.0085 14.0636 21.0276 14.1485 21.0601 14.2286C21.0926 14.3087 21.1117 14.3936 21.1174 14.4833C21.1194 14.5145 21.116 14.5538 21.1073 14.6014C21.0988 14.6528 21.0888 14.7102 21.0771 14.7735C21.0655 14.8369 21.0561 14.904 21.0489 14.975C21.0416 15.0459 21.0402 15.1164 21.0447 15.1866C21.0482 15.2412 21.0575 15.2954 21.0727 15.3492C21.0881 15.4069 21.0975 15.4631 21.101 15.5177C21.104 15.5644 21.0897 15.6162 21.0581 15.6731C21.0306 15.7335 20.9933 15.7926 20.9461 15.8504C20.903 15.9119 20.8557 15.9678 20.8041 16.018C20.7564 16.068 20.7157 16.1058 20.6821 16.1315C20.5376 16.1367 20.3925 16.1323 20.2468 16.1181C20.105 16.1036 19.9743 16.0493 19.8548 15.9551C19.8596 15.9079 19.8626 15.8627 19.8638 15.8195C19.865 15.7764 19.8642 15.7334 19.8614 15.6905C19.85 15.5112 19.8233 15.3368 19.7812 15.1672C19.7393 15.0016 19.7128 14.831 19.7016 14.6556C19.6954 14.5581 19.699 14.4601 19.7123 14.3614C19.7297 14.2663 19.7652 14.178 19.8187 14.0963C19.7764 13.9854 19.7397 13.8704 19.7086 13.751C19.6817 13.6353 19.6644 13.517 19.6567 13.3962C19.6525 13.3299 19.6523 13.2653 19.6561 13.2024C19.6599 13.1396 19.6757 13.0799 19.7034 13.0233L19.7012 12.9882C19.7028 12.9529 19.6932 12.9241 19.6722 12.902C19.6551 12.8796 19.6362 12.8593 19.6155 12.841C19.5947 12.8228 19.5739 12.8026 19.5529 12.7804C19.5358 12.758 19.5262 12.7293 19.5239 12.6942C19.5217 12.6591 19.5336 12.6309 19.5596 12.6097C19.5893 12.5843 19.6034 12.56 19.602 12.5366L19.6012 12.5249C19.5778 12.5264 19.565 12.5096 19.5628 12.4745C19.5578 12.3965 19.5701 12.3135 19.5998 12.2255C19.6291 12.1336 19.641 12.0429 19.6353 11.9532C19.6246 11.7856 19.6022 11.6187 19.5682 11.4525C19.5339 11.2825 19.5113 11.1117 19.5003 10.9402C19.4969 10.8856 19.4994 10.8326 19.5078 10.7812C19.516 10.7259 19.5187 10.6748 19.5157 10.628C19.5135 10.5929 19.4997 10.5606 19.4743 10.5309C19.4489 10.5012 19.4352 10.4707 19.4332 10.4395C19.431 10.4044 19.4347 10.3709 19.4444 10.339C19.4542 10.3071 19.4578 10.2716 19.4553 10.2326C19.4533 10.2014 19.4456 10.1726 19.4322 10.146C19.4185 10.1156 19.4105 10.0828 19.4083 10.0477C19.4048 9.99317 19.4129 9.9359 19.4326 9.87594C19.4523 9.81597 19.4601 9.7548 19.4561 9.69243C19.4504 9.60277 19.4389 9.51348 19.4215 9.42456C19.4041 9.33564 19.3923 9.24245 19.3861 9.14499C19.3796 9.04364 19.385 8.94348 19.4022 8.84454C19.4193 8.74559 19.4247 8.64544 19.4183 8.54408C19.4148 8.4895 19.4017 8.43749 19.379 8.38806C19.356 8.33472 19.339 8.28296 19.328 8.23278C19.2947 8.07833 19.279 7.92472 19.281 7.77194C19.2828 7.61526 19.2787 7.45895 19.2688 7.30302C19.2648 7.24065 19.2551 7.18059 19.2397 7.12286C19.224 7.06123 19.2141 6.99728 19.2099 6.93101C19.2096 6.92711 19.2119 6.90152 19.2167 6.85425C19.2213 6.80307 19.2256 6.748 19.2297 6.68903C19.2338 6.63006 19.2382 6.57693 19.243 6.52966C19.2479 6.48238 19.25 6.45484 19.2495 6.44705L19.3292 6.40675C19.3323 6.39481 19.335 6.37507 19.3371 6.34753C19.3432 6.31974 19.3473 6.29208 19.3495 6.26455C19.3555 6.23676 19.3617 6.21093 19.368 6.18704C19.3743 6.16315 19.3811 6.14706 19.3884 6.13877C19.4103 6.11389 19.4444 6.09606 19.4907 6.08529C19.5367 6.07062 19.5625 6.04549 19.5681 6.00991L19.7611 5.99762C19.858 5.98362 19.9556 5.97937 20.0538 5.98486C20.1557 5.9862 20.2545 6.00144 20.3503 6.03057C20.4023 6.10946 20.4409 6.19311 20.4661 6.28153C20.4952 6.36971 20.5147 6.46045 20.5245 6.55376C20.5383 6.64682 20.5462 6.74026 20.5482 6.83407C20.5542 6.92763 20.5639 7.01899 20.5774 7.10816C20.6463 7.0842 20.7009 7.04942 20.741 7.0038C20.7812 6.95819 20.8152 6.90905 20.8432 6.85639C20.8709 6.79983 20.8988 6.74521 20.9267 6.69255C20.9544 6.63599 20.9903 6.58478 21.0344 6.53892C21.0529 6.52208 21.0846 6.49853 21.1297 6.46827C21.1784 6.43385 21.2272 6.40139 21.2761 6.37087C21.3248 6.33646 21.37 6.30814 21.4116 6.28592C21.453 6.2598 21.4774 6.2426 21.4847 6.2343C21.5178 6.20088 21.5427 6.16211 21.5595 6.11799C21.5801 6.07362 21.6154 6.04397 21.6654 6.02905C21.8183 5.97234 21.9808 5.91112 22.1527 5.84537C22.3244 5.77573 22.4921 5.7357 22.6559 5.72527C22.8235 5.7146 22.9586 5.71579 23.0612 5.72883C23.1638 5.74186 23.2555 5.76734 23.3362 5.80526C23.4166 5.83928 23.4978 5.885 23.5797 5.94241C23.6617 5.99982 23.764 6.06963 23.8866 6.15185C23.9198 6.18105 23.9523 6.20051 23.9843 6.21022C24.016 6.21603 24.0484 6.23353 24.0816 6.26274C24.094 6.27369 24.1216 6.30716 24.1643 6.36315C24.207 6.41915 24.252 6.48086 24.2994 6.5483C24.3467 6.61574 24.3899 6.67953 24.429 6.73968C24.4719 6.79957 24.4979 6.83901 24.507 6.85801C24.5685 6.96369 24.6188 7.07791 24.6579 7.20067C24.6968 7.31953 24.7529 7.43143 24.8261 7.53637L24.8306 7.60654C24.8339 7.71984 24.8469 7.83252 24.8697 7.94458C24.8925 8.05664 24.9172 8.16857 24.9439 8.28039C24.9745 8.39195 25.0012 8.50376 25.024 8.61582C25.0507 8.72763 25.0676 8.84006 25.0748 8.95312C25.0775 8.996 25.0722 9.03548 25.0589 9.07156C25.0494 9.10739 25.0459 9.14479 25.0484 9.18378C25.0506 9.21886 25.0585 9.24968 25.0719 9.27622C25.089 9.29862 25.0985 9.32541 25.1005 9.3566ZM23.822 9.37927C23.817 9.3013 23.8009 9.23188 23.7735 9.17099C23.7498 9.10596 23.7297 9.03678 23.7133 8.96346C23.6952 8.86285 23.6848 8.76174 23.6823 8.66013C23.6836 8.55828 23.6811 8.45667 23.6746 8.35532C23.6697 8.27735 23.655 8.2 23.6305 8.12328C23.606 8.04655 23.5913 7.9692 23.5864 7.89124C23.5851 7.87174 23.5839 7.85225 23.5826 7.83276C23.5853 7.81302 23.5919 7.79303 23.6023 7.7728C23.5306 7.69125 23.4704 7.60701 23.4218 7.52008C23.373 7.42925 23.3298 7.33415 23.2921 7.23478C23.2319 7.21121 23.179 7.17935 23.1334 7.1392C23.0914 7.0949 23.0478 7.05462 23.0024 7.01837C22.9607 6.97797 22.9136 6.94574 22.8612 6.92168C22.8085 6.89372 22.7394 6.88441 22.6539 6.89377C22.6133 6.93159 22.5696 6.95198 22.5228 6.95496C22.4799 6.95769 22.4337 6.97042 22.3843 6.99313C22.3424 7.01146 22.3067 7.03526 22.2773 7.06453C22.2476 7.08991 22.218 7.11723 22.1886 7.1465C22.1589 7.17188 22.1271 7.19543 22.0933 7.21715C22.0592 7.23498 22.0187 7.24538 21.972 7.24836L21.931 7.25097C21.906 7.28779 21.8675 7.32938 21.8157 7.37574C21.7677 7.42184 21.7181 7.47197 21.6667 7.52613C21.619 7.57613 21.5774 7.62967 21.5419 7.68673C21.5103 7.74354 21.5022 7.80081 21.5176 7.85854C21.4562 7.8781 21.4073 7.90862 21.3708 7.95008C21.3379 7.9874 21.3094 8.03032 21.285 8.07884C21.2646 8.12711 21.2423 8.1755 21.218 8.22402C21.1936 8.27253 21.1591 8.31387 21.1143 8.34804L21.1366 8.69889C21.1111 8.72792 21.0815 8.75524 21.0479 8.78087C21.018 8.80234 20.9862 8.82589 20.9526 8.85152C20.9229 8.87689 20.8953 8.90409 20.8697 8.93312C20.8442 8.96214 20.8228 8.99482 20.8055 9.03115C20.8019 9.03529 20.7958 9.06308 20.7873 9.1145C20.7825 9.16178 20.7747 9.22295 20.7638 9.29801C20.7566 9.36892 20.7478 9.44581 20.7374 9.52867C20.727 9.61153 20.7164 9.69049 20.7055 9.76555C20.6985 9.84036 20.6929 9.9053 20.6885 9.96038C20.6842 10.0155 20.6824 10.0488 20.6832 10.0605C20.6861 10.1073 20.699 10.1554 20.7217 10.2049C20.7481 10.2501 20.7688 10.2997 20.784 10.3535C20.7992 10.4074 20.811 10.4693 20.8193 10.5392C20.8274 10.6052 20.8357 10.6732 20.844 10.7431C20.8563 10.8128 20.8684 10.8805 20.8805 10.9463C20.8964 11.0118 20.9156 11.0673 20.938 11.1129C20.9825 11.1962 21.0326 11.2771 21.0885 11.3558C21.1442 11.4305 21.1846 11.5121 21.2098 11.6005C21.3102 11.6411 21.3975 11.6903 21.4717 11.7482C21.5497 11.8059 21.6296 11.8615 21.7113 11.915C21.7927 11.9646 21.8834 12.0058 21.9833 12.0386C22.0872 12.0711 22.2132 12.0826 22.3613 12.0732C22.4354 12.0685 22.5049 12.0543 22.5699 12.0306C22.6389 12.0066 22.7037 11.979 22.7643 11.9478C22.8288 11.9162 22.8935 11.8867 22.9583 11.8591C23.0228 11.8276 23.0899 11.8057 23.1596 11.7934C23.2 11.7517 23.2284 11.7068 23.245 11.6588C23.2612 11.6069 23.2796 11.5568 23.3 11.5085L23.3675 11.4631C23.4106 11.4017 23.4395 11.3333 23.4543 11.258C23.4691 11.1827 23.4819 11.1075 23.4928 11.0324C23.5076 10.9571 23.5245 10.8856 23.5437 10.8178C23.5665 10.7459 23.6056 10.6828 23.6608 10.6284C23.6658 10.5224 23.6769 10.4199 23.6941 10.3209C23.7149 10.2178 23.7359 10.1167 23.757 10.0175C23.7778 9.91441 23.7947 9.81157 23.8078 9.70897C23.8245 9.60222 23.8292 9.49232 23.822 9.37927ZM27.4611 4.47411C27.4217 4.53141 27.406 4.59308 27.4142 4.6591C27.4223 4.72513 27.4187 4.79189 27.4034 4.85941C27.3957 4.92253 27.378 4.98237 27.3503 5.03893C27.3264 5.09524 27.3106 5.15301 27.3026 5.21223C27.294 5.385 27.299 5.55495 27.3174 5.72208C27.3395 5.88507 27.3559 6.05038 27.3666 6.21801C27.3683 6.24529 27.3641 6.27101 27.3539 6.29514C27.3437 6.31928 27.3396 6.34694 27.3416 6.37812C27.345 6.4327 27.3563 6.48678 27.3754 6.54036C27.3942 6.59005 27.4054 6.64218 27.4088 6.69676C27.4118 6.74354 27.405 6.79094 27.3885 6.83896C27.3759 6.88673 27.3615 6.93658 27.3452 6.9885C27.3287 7.03652 27.3124 7.08844 27.2964 7.14426C27.2843 7.19983 27.2802 7.2588 27.2842 7.32117C27.2936 7.46931 27.3224 7.61426 27.3706 7.75602C27.4185 7.89388 27.4472 8.03687 27.4566 8.18501C27.4635 8.29417 27.4566 8.40029 27.4358 8.50338C27.4147 8.60258 27.4115 8.70651 27.4263 8.81517C27.4282 8.84635 27.4322 8.87742 27.4381 8.90835C27.4437 8.93539 27.4475 8.96451 27.4495 8.99569C27.4545 9.07366 27.4426 9.16444 27.414 9.26803C27.3893 9.37137 27.3555 9.45572 27.3127 9.52107C27.3413 9.60145 27.3583 9.68452 27.3638 9.77028C27.368 9.83656 27.3663 9.93256 27.3586 10.0583C27.3546 10.1799 27.3431 10.3059 27.324 10.4363C27.3046 10.5628 27.2749 10.6801 27.2348 10.7883C27.1986 10.8963 27.1522 10.9658 27.0954 10.9968C27.0328 10.9969 26.9696 10.9872 26.9057 10.9678C26.8455 10.9443 26.7906 10.9125 26.7411 10.8726C26.6916 10.8327 26.6495 10.7865 26.6149 10.7339C26.5839 10.6771 26.5661 10.6137 26.5617 10.5435C26.5582 10.4889 26.5607 10.4359 26.5692 10.3845C26.5776 10.3331 26.5801 10.2801 26.5766 10.2255C26.5652 10.0462 26.5424 9.8715 26.5081 9.70146C26.4737 9.53142 26.4509 9.35674 26.4395 9.17742C26.433 9.07606 26.4324 8.97433 26.4377 8.87223C26.4429 8.77013 26.4423 8.6684 26.4358 8.56704C26.4324 8.51246 26.4193 8.46046 26.3966 8.41102C26.3738 8.36158 26.3568 8.30982 26.3456 8.25574C26.3521 8.23575 26.3587 8.21576 26.3652 8.19578C26.3718 8.17579 26.3744 8.15605 26.3732 8.13656L26.371 8.10147L26.2762 7.99595L26.2747 7.97256C26.2712 7.91798 26.2757 7.86486 26.288 7.81319C26.3041 7.75737 26.3103 7.70217 26.3069 7.6476C26.3041 7.60471 26.2848 7.57854 26.249 7.56908C26.2655 7.52106 26.2736 7.43248 26.2732 7.30334C26.2726 7.1703 26.2675 7.02971 26.2581 6.88157C26.2523 6.72928 26.243 6.5831 26.2302 6.443C26.2212 6.30266 26.2145 6.19741 26.2101 6.12724C26.2016 5.99469 26.1778 5.86704 26.1387 5.74428C26.1032 5.61737 26.0815 5.49154 26.0736 5.36679C26.0666 5.25764 26.0896 5.15637 26.1423 5.06298C26.1108 4.99845 26.091 4.93317 26.0829 4.86715C26.0748 4.80112 26.0686 4.73497 26.0644 4.6687C26.0549 4.52056 26.0461 4.38217 26.0379 4.25353C26.0295 4.12098 26.0417 4.00474 26.0745 3.9048C26.1111 3.80461 26.1765 3.72413 26.2705 3.66334C26.3642 3.59866 26.5085 3.56012 26.7034 3.54771C26.8243 3.54002 26.922 3.56902 26.9967 3.63473C27.075 3.69628 27.1407 3.77625 27.1939 3.87463C27.2469 3.96911 27.2926 4.07189 27.331 4.18295C27.3733 4.29377 27.4166 4.39082 27.4611 4.47411ZM27.7513 12.0765C27.754 12.1194 27.7451 12.163 27.7244 12.2074C27.7074 12.2476 27.6942 12.2856 27.6847 12.3215C27.676 12.369 27.6709 12.4124 27.6695 12.4516C27.6681 12.4908 27.6626 12.5284 27.6532 12.5642C27.6474 12.5959 27.6338 12.628 27.6124 12.6607C27.5948 12.6931 27.5638 12.7284 27.5193 12.7665C27.437 12.8265 27.3458 12.8695 27.2457 12.8954C27.1494 12.9211 27.0526 12.9371 26.9552 12.9433C26.8421 12.9505 26.738 12.9454 26.643 12.9279C26.5764 12.8656 26.514 12.807 26.4557 12.752C26.4013 12.6967 26.3612 12.621 26.3355 12.5248C26.3106 12.5029 26.2895 12.4788 26.2722 12.4525C26.2546 12.4223 26.2447 12.3896 26.2425 12.3546C26.2368 12.2649 26.2547 12.1776 26.2963 12.0928C26.3415 12.0038 26.3991 11.9258 26.4692 11.8587C26.5391 11.7877 26.6176 11.7298 26.7048 11.6852C26.7959 11.6402 26.8823 11.6151 26.9642 11.6099C27.0344 11.6055 27.1131 11.6122 27.2003 11.6301C27.2873 11.6442 27.3713 11.6721 27.4523 11.7139C27.533 11.7518 27.6008 11.8023 27.6557 11.8653C27.7142 11.9242 27.7461 11.9946 27.7513 12.0765Z" fill="#DECDAC"/>
<defs>
<filter id="filter0_d_77_132" x="0.135254" y="18.4298" width="36.8801" height="40.8801" filterUnits="userSpaceOnUse" color-interpolation-filters="sRGB">
<feFlood flood-opacity="0" result="BackgroundImageFix"/>
<feColorMatrix in="SourceAlpha" type="matrix" values="0 0 0 0 0 0 0 0 0 0 0 0 0 0 0 0 0 0 127 0" result="hardAlpha"/>
<feOffset dy="4"/>
<feComposite in2="hardAlpha" operator="out"/>
<feColorMatrix type="matrix" values="0 0 0 0 0.905882 0 0 0 0 0.905882 0 0 0 0 0.905882 0 0 0 1 0"/>
<feBlend mode="normal" in2="BackgroundImageFix" result="effect1_dropShadow_77_132"/>
<feBlend mode="normal" in="SourceGraphic" in2="effect1_dropShadow_77_132" result="shape"/>
</filter>
</defs>
</svg>
